<mxfile host="app.diagrams.net" modified="2021-05-20T15:40:00.174Z" agent="5.0 (Windows NT 10.0; Win64; x64) AppleWebKit/537.36 (KHTML, like Gecko) Chrome/90.0.4430.212 Safari/537.36" etag="Eg5ZK9Hf7XRtxICqOyk3" version="14.6.13" type="github">
  <diagram id="2qIUm_e9N40QwcKwlcvI" name="Page-1">
    <mxGraphModel dx="1038" dy="580" grid="1" gridSize="10" guides="1" tooltips="1" connect="1" arrows="1" fold="1" page="1" pageScale="1" pageWidth="850" pageHeight="1100" math="0" shadow="0">
      <root>
        <mxCell id="0" />
        <mxCell id="1" parent="0" />
        <mxCell id="71-U_xi8uz0sUUxco8Kv-2" style="edgeStyle=orthogonalEdgeStyle;rounded=0;orthogonalLoop=1;jettySize=auto;html=1;" edge="1" parent="1" source="71-U_xi8uz0sUUxco8Kv-1" target="71-U_xi8uz0sUUxco8Kv-3">
          <mxGeometry relative="1" as="geometry">
            <mxPoint x="425" y="200" as="targetPoint" />
          </mxGeometry>
        </mxCell>
        <mxCell id="71-U_xi8uz0sUUxco8Kv-1" value="&lt;font style=&quot;font-size: 18px&quot;&gt;Start&lt;/font&gt;" style="ellipse;whiteSpace=wrap;html=1;" vertex="1" parent="1">
          <mxGeometry x="373" y="40" width="105" height="50" as="geometry" />
        </mxCell>
        <mxCell id="71-U_xi8uz0sUUxco8Kv-29" style="edgeStyle=orthogonalEdgeStyle;rounded=0;orthogonalLoop=1;jettySize=auto;html=1;fontSize=17;" edge="1" parent="1" source="71-U_xi8uz0sUUxco8Kv-3">
          <mxGeometry relative="1" as="geometry">
            <mxPoint x="425.5" y="250" as="targetPoint" />
          </mxGeometry>
        </mxCell>
        <mxCell id="71-U_xi8uz0sUUxco8Kv-3" value="2,5,8" style="shape=parallelogram;perimeter=parallelogramPerimeter;whiteSpace=wrap;html=1;fixedSize=1;fontSize=17;" vertex="1" parent="1">
          <mxGeometry x="365.5" y="130" width="120" height="60" as="geometry" />
        </mxCell>
        <mxCell id="71-U_xi8uz0sUUxco8Kv-31" value="no" style="edgeStyle=orthogonalEdgeStyle;rounded=0;orthogonalLoop=1;jettySize=auto;html=1;fontSize=17;entryX=0.5;entryY=0;entryDx=0;entryDy=0;" edge="1" parent="1" source="71-U_xi8uz0sUUxco8Kv-30" target="71-U_xi8uz0sUUxco8Kv-33">
          <mxGeometry relative="1" as="geometry">
            <mxPoint x="300" y="290" as="targetPoint" />
          </mxGeometry>
        </mxCell>
        <mxCell id="71-U_xi8uz0sUUxco8Kv-32" value="yes" style="edgeStyle=orthogonalEdgeStyle;rounded=0;orthogonalLoop=1;jettySize=auto;html=1;fontSize=17;" edge="1" parent="1" source="71-U_xi8uz0sUUxco8Kv-30" target="71-U_xi8uz0sUUxco8Kv-34">
          <mxGeometry relative="1" as="geometry">
            <mxPoint x="560" y="390" as="targetPoint" />
          </mxGeometry>
        </mxCell>
        <mxCell id="71-U_xi8uz0sUUxco8Kv-30" value="8&amp;gt;5" style="rhombus;whiteSpace=wrap;html=1;fontSize=17;" vertex="1" parent="1">
          <mxGeometry x="385.5" y="250" width="80" height="80" as="geometry" />
        </mxCell>
        <mxCell id="71-U_xi8uz0sUUxco8Kv-46" value="no" style="edgeStyle=orthogonalEdgeStyle;rounded=0;orthogonalLoop=1;jettySize=auto;html=1;entryX=0.5;entryY=1;entryDx=0;entryDy=0;fontSize=17;" edge="1" parent="1" source="71-U_xi8uz0sUUxco8Kv-33" target="71-U_xi8uz0sUUxco8Kv-30">
          <mxGeometry relative="1" as="geometry" />
        </mxCell>
        <mxCell id="71-U_xi8uz0sUUxco8Kv-33" value="8&amp;lt;5" style="rhombus;whiteSpace=wrap;html=1;fontSize=17;" vertex="1" parent="1">
          <mxGeometry x="200" y="400" width="80" height="80" as="geometry" />
        </mxCell>
        <mxCell id="71-U_xi8uz0sUUxco8Kv-44" value="yes" style="edgeStyle=orthogonalEdgeStyle;rounded=0;orthogonalLoop=1;jettySize=auto;html=1;fontSize=17;" edge="1" parent="1" source="71-U_xi8uz0sUUxco8Kv-34">
          <mxGeometry relative="1" as="geometry">
            <mxPoint x="640" y="540" as="targetPoint" />
          </mxGeometry>
        </mxCell>
        <mxCell id="71-U_xi8uz0sUUxco8Kv-34" value="8&amp;gt;2" style="rhombus;whiteSpace=wrap;html=1;fontSize=17;" vertex="1" parent="1">
          <mxGeometry x="600" y="400" width="80" height="80" as="geometry" />
        </mxCell>
        <mxCell id="71-U_xi8uz0sUUxco8Kv-47" style="edgeStyle=orthogonalEdgeStyle;rounded=0;orthogonalLoop=1;jettySize=auto;html=1;fontSize=17;" edge="1" parent="1" source="71-U_xi8uz0sUUxco8Kv-42" target="71-U_xi8uz0sUUxco8Kv-48">
          <mxGeometry relative="1" as="geometry">
            <mxPoint x="640" y="670" as="targetPoint" />
          </mxGeometry>
        </mxCell>
        <mxCell id="71-U_xi8uz0sUUxco8Kv-42" value="&lt;font style=&quot;font-size: 15px&quot;&gt;8 the biggest number&lt;/font&gt;" style="shape=parallelogram;perimeter=parallelogramPerimeter;whiteSpace=wrap;html=1;fixedSize=1;fontSize=17;" vertex="1" parent="1">
          <mxGeometry x="580" y="540" width="120" height="70" as="geometry" />
        </mxCell>
        <mxCell id="71-U_xi8uz0sUUxco8Kv-48" value="The end" style="ellipse;whiteSpace=wrap;html=1;fontSize=17;" vertex="1" parent="1">
          <mxGeometry x="580" y="650" width="120" height="80" as="geometry" />
        </mxCell>
      </root>
    </mxGraphModel>
  </diagram>
</mxfile>
